<svg width="39" height="39" viewBox="0 0 39 39" fill="none" xmlns="http://www.w3.org/2000/svg">
<path d="M19.5 39C16.8025 39 14.2675 38.4881 11.895 37.4644C9.5225 36.4406 7.45875 35.0513 5.70375 33.2963C3.94875 31.5413 2.55938 29.4775 1.53563 27.105C0.511875 24.7325 0 22.1975 0 19.5C0 16.8025 0.511875 14.2675 1.53563 11.895C2.55938 9.5225 3.94875 7.45875 5.70375 5.70375C7.45875 3.94875 9.5225 2.55938 11.895 1.53563C14.2675 0.511875 16.8025 0 19.5 0C21.6125 0 23.6112 0.30875 25.4963 0.92625C27.3813 1.54375 29.12 2.405 30.7125 3.51L27.885 6.38625C26.65 5.60625 25.3338 4.99688 23.9363 4.55813C22.5388 4.11938 21.06 3.9 19.5 3.9C15.1775 3.9 11.4969 5.41938 8.45813 8.45813C5.41938 11.4969 3.9 15.1775 3.9 19.5C3.9 23.8225 5.41938 27.5031 8.45813 30.5419C11.4969 33.5806 15.1775 35.1 19.5 35.1C23.8225 35.1 27.5031 33.5806 30.5419 30.5419C33.5806 27.5031 35.1 23.8225 35.1 19.5C35.1 18.915 35.0675 18.33 35.0025 17.745C34.9375 17.16 34.84 16.5913 34.71 16.0388L37.8788 12.87C38.2363 13.91 38.5125 14.9825 38.7075 16.0875C38.9025 17.1925 39 18.33 39 19.5C39 22.1975 38.4881 24.7325 37.4644 27.105C36.4406 29.4775 35.0513 31.5413 33.2963 33.2963C31.5413 35.0513 29.4775 36.4406 27.105 37.4644C24.7325 38.4881 22.1975 39 19.5 39ZM16.77 28.47L8.4825 20.1825L11.2125 17.4525L16.77 23.01L36.27 3.46125L39 6.19125L16.77 28.47Z" fill="#DFD9CB"/>
</svg>
