<svg width="23" height="23" viewBox="0 0 23 23" fill="none" xmlns="http://www.w3.org/2000/svg">
<circle cx="11.3889" cy="11.3889" r="11.3889" transform="matrix(-1 0 0 1 22.7778 0)" fill="#7CC0E5"/>
<path d="M16.7972 12.1666C16.1751 12.1666 15.6708 11.6623 15.6708 11.0402C15.6708 10.4181 16.1751 9.91382 16.7972 9.91382C17.4193 9.91382 17.9236 10.4181 17.9236 11.0402C17.9236 11.6623 17.4193 12.1666 16.7972 12.1666Z" fill="#171E54"/>
<path d="M6.34824 12.1666C5.72616 12.1666 5.22186 11.6623 5.22186 11.0402C5.22186 10.4181 5.72616 9.91382 6.34824 9.91382C6.97031 9.91382 7.47461 10.4181 7.47461 11.0402C7.47461 11.6623 6.97031 12.1666 6.34824 12.1666Z" fill="#171E54"/>
<path d="M17.751 7.98423C17.5671 7.71421 17.3449 7.46915 17.0906 7.25582C16.8298 7.02752 16.5364 6.83473 16.219 6.68306C16.1363 6.6522 16.0442 6.6522 15.9615 6.68306C15.8858 6.72023 15.827 6.78223 15.7964 6.85738C15.7785 6.89453 15.7693 6.93487 15.7693 6.97567C15.7693 7.01647 15.7785 7.05679 15.7964 7.09395C15.8351 7.16359 15.8981 7.21855 15.9747 7.2496H16.0209L16.1134 7.2994C16.1779 7.3323 16.2397 7.36976 16.2982 7.41147L16.4699 7.52976L16.5492 7.59201L16.5888 7.62937C16.6284 7.67917 16.6878 7.71653 16.7341 7.76633L16.8793 7.91575C16.9255 7.97178 16.9718 8.02159 17.0114 8.07762L17.0774 8.16478V8.20213C17.1014 8.24692 17.1349 8.2866 17.1758 8.31873C17.2167 8.35085 17.2641 8.37473 17.3151 8.3889C17.3979 8.41976 17.49 8.41976 17.5727 8.3889C17.6508 8.3548 17.7124 8.29428 17.7455 8.21933C17.7785 8.14438 17.7804 8.06048 17.751 7.98423Z" fill="#171E54"/>
<path d="M5.17897 7.49556C5.40876 7.24747 5.67594 7.03067 5.97244 6.8517C6.29145 6.66466 6.6362 6.51742 6.99763 6.41388C7.04407 6.40699 7.09156 6.40856 7.13734 6.41851C7.18313 6.42845 7.22631 6.44657 7.26446 6.47182C7.33776 6.52196 7.38788 6.59548 7.4049 6.67786C7.4221 6.76302 7.4019 6.85096 7.34872 6.92253C7.28984 6.98093 7.21451 7.02326 7.13104 7.04486H7.06785L6.96955 7.08349L6.75188 7.16719C6.68124 7.19424 6.61313 7.22655 6.54824 7.26377L6.44992 7.30884H6.40079C6.34461 7.35391 6.27439 7.38611 6.21821 7.42474L6.03564 7.55995L5.86712 7.7016L5.77583 7.77886C5.72116 7.84607 5.64097 7.89202 5.55113 7.90763C5.45833 7.9202 5.36371 7.90193 5.28432 7.85612C5.22891 7.81294 5.18915 7.75531 5.17034 7.6909C5.15152 7.62649 5.15453 7.55836 5.17897 7.49556Z" fill="#171E54"/>
<path d="M15.1636 15.8626C14.6728 15.3044 14.0487 14.8573 13.3397 14.5557C12.6306 14.2541 11.8555 14.1062 11.0743 14.1234C10.3201 14.082 9.56597 14.2056 8.87398 14.484C8.182 14.7625 7.57196 15.1878 7.09407 15.725C7.09407 15.725 6.59654 17.4455 8.00052 17.7395C9.40451 18.0335 14.1344 17.7395 14.1344 17.7395C14.3426 17.6873 14.5365 17.5954 14.7036 17.47C14.8706 17.3446 15.0071 17.1883 15.1041 17.0113C15.2011 16.8344 15.2566 16.6407 15.2668 16.4428C15.2771 16.2449 15.2419 16.0472 15.1636 15.8626Z" fill="#171E54" stroke="#7CC0E5" stroke-miterlimit="10"/>
</svg>
