<svg width="23" height="23" viewBox="0 0 23 23" fill="none" xmlns="http://www.w3.org/2000/svg">
<circle cx="11.3889" cy="11.3889" r="11.3889" transform="matrix(-1 0 0 1 22.7778 0)" fill="#F5A935"/>
<path d="M15.8943 12.0145C15.134 12.0145 14.5176 11.4542 14.5176 10.763C14.5176 10.0718 15.134 9.51147 15.8943 9.51147C16.6546 9.51147 17.271 10.0718 17.271 10.763C17.271 11.4542 16.6546 12.0145 15.8943 12.0145Z" fill="#171E54"/>
<path d="M6.88309 12.0145C6.12277 12.0145 5.50641 11.4542 5.50641 10.763C5.50641 10.0718 6.12277 9.51147 6.88309 9.51147C7.6434 9.51147 8.25977 10.0718 8.25977 10.763C8.25977 11.4542 7.6434 12.0145 6.88309 12.0145Z" fill="#171E54"/>
<path d="M4.27 8.33473C4.47947 8.05651 4.72684 7.8049 5.00587 7.58623C5.3153 7.35619 5.66013 7.17099 6.02872 7.03687C6.07264 7.01829 6.1203 7.00867 6.16853 7.00867C6.21676 7.00867 6.26443 7.01829 6.30835 7.03687C6.34953 7.05765 6.38578 7.08601 6.41487 7.12024C6.44396 7.15447 6.46531 7.19386 6.47761 7.23602C6.49769 7.27817 6.50806 7.32379 6.50806 7.36992C6.50806 7.41606 6.49769 7.46167 6.47761 7.50383C6.42735 7.57572 6.35192 7.62911 6.2642 7.6549H6.20533L6.1023 7.70297L5.88891 7.81284L5.68287 7.92958L5.5872 7.99138L5.54305 8.02571C5.49154 8.07378 5.42531 8.11499 5.36644 8.16306L5.18983 8.31413C5.13202 8.36809 5.07795 8.42543 5.02794 8.48581C4.99711 8.51233 4.96992 8.54231 4.947 8.57507C4.8948 8.64962 4.81693 8.70534 4.72623 8.73302C4.68094 8.75135 4.6321 8.7608 4.58273 8.7608C4.53337 8.7608 4.48453 8.75135 4.43924 8.73302C4.36776 8.69348 4.31236 8.63292 4.28173 8.56084C4.2511 8.48877 4.24698 8.40924 4.27 8.33473Z" fill="#171E54"/>
<path d="M18.0056 8.33473C17.8195 8.05651 17.5997 7.8049 17.3517 7.58623C17.0767 7.35619 16.7703 7.17099 16.4427 7.03687C16.4037 7.01829 16.3613 7.00867 16.3185 7.00867C16.2756 7.00867 16.2333 7.01829 16.1942 7.03687C16.1217 7.08061 16.0679 7.15188 16.0438 7.23602C16.0114 7.32204 16.0114 7.4178 16.0438 7.50383C16.09 7.57425 16.1565 7.62722 16.2335 7.6549H16.2858L16.3773 7.70297C16.4426 7.73547 16.506 7.77216 16.567 7.81284C16.6303 7.84769 16.6914 7.88668 16.7501 7.92958L16.8351 7.99138L16.8809 8.02571C16.9267 8.07378 16.992 8.11499 17.0378 8.16306L17.1948 8.31413C17.2461 8.36809 17.2942 8.42543 17.3386 8.48581L17.4171 8.57507C17.4635 8.64962 17.5327 8.70534 17.6133 8.73302C17.6535 8.75135 17.6969 8.7608 17.7408 8.7608C17.7847 8.7608 17.8281 8.75135 17.8683 8.73302C17.9303 8.69231 17.9775 8.63096 18.0024 8.55876C18.0273 8.48656 18.0285 8.40768 18.0056 8.33473Z" fill="#171E54"/>
<path fill-rule="evenodd" clip-rule="evenodd" d="M6.35515 14.4985C6.35526 14.4987 6.35537 14.4988 6.0417 14.7052C5.72802 14.9115 5.72815 14.9117 5.72828 14.9119L5.72857 14.9123L5.72928 14.9134L5.73117 14.9162L5.73685 14.9246C5.74148 14.9314 5.7478 14.9405 5.75585 14.9517C5.77194 14.9743 5.79493 15.0055 5.82501 15.0441C5.88514 15.1213 5.97375 15.2281 6.09237 15.3537C6.32948 15.6048 6.6876 15.9322 7.17903 16.2484C8.16622 16.8837 9.67892 17.4654 11.7992 17.3071C13.8901 17.151 15.2143 16.5751 16.0258 16.0139C16.4304 15.7341 16.7034 15.4607 16.8783 15.251C16.9656 15.1462 17.0282 15.0577 17.0705 14.9924C17.0916 14.9598 17.1076 14.9331 17.119 14.913C17.1247 14.903 17.1293 14.8947 17.1328 14.8881L17.1373 14.8797L17.1389 14.8765L17.1396 14.8752L17.1399 14.8746C17.14 14.8743 17.1402 14.874 16.8048 14.7052C16.4695 14.5363 16.4696 14.536 16.4698 14.5358L16.47 14.5353L16.4704 14.5345L16.471 14.5334C16.4712 14.5329 16.4713 14.5328 16.4711 14.5332C16.4706 14.534 16.4693 14.5365 16.4669 14.5407C16.4622 14.549 16.4534 14.5638 16.4401 14.5844C16.4134 14.6256 16.3686 14.6897 16.3015 14.7701C16.1677 14.9306 15.9444 15.1572 15.5987 15.3963C14.9095 15.873 13.7169 16.4109 11.7432 16.5582C9.79886 16.7034 8.44681 16.1713 7.58539 15.617C7.15253 15.3384 6.84039 15.0521 6.63832 14.8381C6.53735 14.7312 6.46413 14.6426 6.41734 14.5826C6.39395 14.5525 6.3772 14.5297 6.36692 14.5153C6.36178 14.5081 6.35826 14.503 6.35635 14.5002L6.35472 14.4978L6.35497 14.4982L6.35515 14.4985Z" fill="#171E54"/>
</svg>
