<svg width="23" height="23" viewBox="0 0 23 23" fill="none" xmlns="http://www.w3.org/2000/svg">
<circle cx="11.3889" cy="11.3889" r="11.3889" transform="matrix(-1 0 0 1 22.7778 0)" fill="#C5C2E1"/>
<path d="M15.6441 12.0148C14.8838 12.0148 14.2674 11.4544 14.2674 10.7632C14.2674 10.072 14.8838 9.51172 15.6441 9.51172C16.4044 9.51172 17.0208 10.072 17.0208 10.7632C17.0208 11.4544 16.4044 12.0148 15.6441 12.0148Z" fill="#171E54"/>
<path d="M6.63284 12.0148C5.87252 12.0148 5.25616 11.4544 5.25616 10.7632C5.25616 10.072 5.87252 9.51172 6.63284 9.51172C7.39316 9.51172 8.00952 10.072 8.00952 10.7632C8.00952 11.4544 7.39316 12.0148 6.63284 12.0148Z" fill="#171E54"/>
<path d="M4.01951 8.33461C4.22898 8.05639 4.47635 7.80478 4.75538 7.58611C5.06482 7.35607 5.40964 7.17087 5.77824 7.03675C5.82216 7.01816 5.86982 7.00854 5.91804 7.00854C5.96627 7.00854 6.01394 7.01816 6.05786 7.03675C6.09905 7.05753 6.13529 7.08589 6.16438 7.12012C6.19348 7.15435 6.21482 7.19374 6.22712 7.23589C6.2472 7.27805 6.25757 7.32367 6.25757 7.3698C6.25757 7.41593 6.2472 7.46155 6.22712 7.50371C6.17686 7.57559 6.10143 7.62899 6.01371 7.65478H5.95484L5.85182 7.70285L5.63842 7.81272L5.43238 7.92946L5.33671 7.99126L5.29256 8.02559C5.24105 8.07366 5.17482 8.11487 5.11595 8.16293L4.93935 8.31401C4.88154 8.36797 4.82746 8.42531 4.77745 8.48568C4.74663 8.51221 4.71944 8.54219 4.69651 8.57495C4.64432 8.6495 4.56644 8.70521 4.47574 8.73289C4.43046 8.75123 4.38161 8.76068 4.33224 8.76068C4.28288 8.76068 4.23404 8.75123 4.18876 8.73289C4.11728 8.69336 4.06187 8.6328 4.03124 8.56072C4.00061 8.48864 3.99649 8.40911 4.01951 8.33461Z" fill="#171E54"/>
<path d="M17.7552 8.33461C17.569 8.05639 17.3492 7.80478 17.1012 7.58611C16.8262 7.35607 16.5198 7.17087 16.1923 7.03675C16.1532 7.01816 16.1109 7.00854 16.068 7.00854C16.0251 7.00854 15.9828 7.01816 15.9438 7.03675C15.8712 7.08048 15.8174 7.15175 15.7934 7.23589C15.7609 7.32192 15.7609 7.41768 15.7934 7.50371C15.8395 7.57413 15.906 7.6271 15.983 7.65478H16.0353L16.1269 7.70285C16.1922 7.73535 16.2555 7.77204 16.3165 7.81272C16.3798 7.84757 16.441 7.88655 16.4996 7.92946L16.5846 7.99126L16.6304 8.02559C16.6762 8.07366 16.7416 8.11487 16.7873 8.16293L16.9443 8.31401C16.9956 8.36797 17.0437 8.42531 17.0881 8.48568L17.1666 8.57495C17.213 8.6495 17.2822 8.70521 17.3628 8.73289C17.403 8.75123 17.4464 8.76068 17.4903 8.76068C17.5342 8.76068 17.5776 8.75123 17.6178 8.73289C17.6798 8.69219 17.7271 8.63084 17.752 8.55864C17.7768 8.48644 17.778 8.40756 17.7552 8.33461Z" fill="#171E54"/>
<path fill-rule="evenodd" clip-rule="evenodd" d="M16.4571 16.8251C16.457 16.825 16.4569 16.8248 16.7706 16.6184C17.0842 16.4121 17.0841 16.4119 17.084 16.4117L17.0837 16.4113L17.083 16.4102L17.0811 16.4074L17.0754 16.399C17.0708 16.3922 17.0645 16.3832 17.0564 16.3719C17.0403 16.3494 17.0173 16.3181 16.9872 16.2795C16.9271 16.2023 16.8385 16.0956 16.7199 15.9699C16.4828 15.7189 16.1247 15.3914 15.6332 15.0752C14.646 14.4399 13.1333 13.8582 11.0131 14.0165C8.92216 14.1726 7.59792 14.7485 6.78644 15.3097C6.38182 15.5895 6.10882 15.8629 5.93397 16.0726C5.84665 16.1774 5.78402 16.2659 5.7418 16.3312C5.7207 16.3638 5.7047 16.3906 5.69326 16.4106C5.68754 16.4206 5.68296 16.4289 5.67946 16.4355L5.675 16.4439L5.67336 16.4471L5.67268 16.4484L5.67237 16.449C5.67223 16.4493 5.6721 16.4496 6.00743 16.6184C6.34276 16.7873 6.34263 16.7876 6.3425 16.7878L6.34227 16.7883L6.34186 16.7891L6.34129 16.7902C6.34103 16.7907 6.341 16.7908 6.3412 16.7904C6.34161 16.7896 6.34297 16.7871 6.34534 16.783C6.35009 16.7746 6.35887 16.7598 6.3722 16.7392C6.39885 16.698 6.44368 16.6339 6.51071 16.5535C6.64457 16.393 6.86786 16.1664 7.21358 15.9273C7.90274 15.4507 9.09532 14.9127 11.069 14.7654C13.0134 14.6202 14.3655 15.1523 15.2269 15.7066C15.6597 15.9852 15.9719 16.2715 16.1739 16.4855C16.2749 16.5924 16.3481 16.681 16.3949 16.7411C16.4183 16.7711 16.4351 16.7939 16.4453 16.8083C16.4505 16.8155 16.454 16.8206 16.4559 16.8234L16.4575 16.8258L16.4573 16.8254L16.4571 16.8251Z" fill="#171E54"/>
</svg>
