<svg width="23" height="23" viewBox="0 0 23 23" fill="none" xmlns="http://www.w3.org/2000/svg">
<circle cx="11.3889" cy="11.3889" r="11.3889" transform="matrix(-1 0 0 1 22.7778 0)" fill="#CA4651"/>
<path d="M15.2686 16.5201C15.2686 16.5201 14.2774 14.6267 11.3729 14.7764C8.46832 14.926 7.75939 16.442 7.75939 16.442" fill="#CA4651"/>
<path fill-rule="evenodd" clip-rule="evenodd" d="M14.9362 16.6947C14.9361 16.6945 14.936 16.6943 15.2687 16.5202C15.6013 16.346 15.6012 16.3458 15.6011 16.3456L15.6008 16.3452L15.6003 16.3441L15.5988 16.3414L15.5949 16.3341C15.5917 16.3283 15.5874 16.3207 15.5821 16.3115C15.5715 16.2931 15.5566 16.2681 15.5371 16.2375C15.4981 16.1763 15.4408 16.0924 15.3631 15.994C15.2078 15.7973 14.9701 15.541 14.6342 15.291C13.9568 14.7869 12.8976 14.322 11.3537 14.4015C9.83441 14.4798 8.85892 14.9181 8.25445 15.363C7.95392 15.5842 7.75002 15.8035 7.61877 15.973C7.55321 16.0577 7.50589 16.1298 7.47371 16.1834C7.45762 16.2102 7.44531 16.2324 7.43639 16.2493C7.43192 16.2577 7.42831 16.2648 7.42549 16.2704L7.42186 16.2779L7.42048 16.2807L7.4199 16.282L7.41963 16.2825C7.41951 16.2828 7.41938 16.2831 7.75949 16.4421C8.0996 16.6011 8.09948 16.6014 8.09937 16.6016L8.09915 16.6021L8.09877 16.6029L8.09818 16.6041C8.09786 16.6048 8.09771 16.6051 8.09774 16.605C8.09778 16.605 8.0985 16.6035 8.09994 16.6008C8.10282 16.5954 8.10858 16.5848 8.11754 16.5699C8.13548 16.54 8.16623 16.4925 8.21253 16.4327C8.30497 16.3133 8.45983 16.1443 8.6996 15.9678C9.17574 15.6173 10.007 15.2228 11.3923 15.1514C12.7529 15.0813 13.6415 15.4883 14.1859 15.8934C14.4608 16.098 14.6524 16.3057 14.7737 16.4593C14.8343 16.5361 14.8771 16.599 14.9037 16.6408C14.917 16.6616 14.9262 16.6771 14.9315 16.6864C14.9341 16.691 14.9358 16.6941 14.9366 16.6954L14.9364 16.695L14.9362 16.6947ZM14.9366 16.6954C14.937 16.6961 14.9371 16.6964 14.937 16.6962L14.9367 16.6956L14.9366 16.6954Z" fill="#171E54"/>
<path d="M9.01099 10.6059C8.75623 11.058 8.37221 11.4069 7.91769 11.5992C7.46317 11.7914 6.96319 11.8165 6.49432 11.6706C4.88229 11.1161 6.22225 9.2381 6.22225 9.2381L5.2564 7.7594L9.01099 10.6059Z" fill="#171E54"/>
<path d="M14.017 10.6059C14.2547 11.058 14.6132 11.4069 15.0374 11.5992C15.4616 11.7914 15.9282 11.8165 16.3658 11.6706C17.864 11.1161 16.6198 9.2381 16.6198 9.2381L17.5212 7.7594L14.017 10.6059Z" fill="#171E54"/>
</svg>
