<svg width="23" height="23" viewBox="0 0 23 23" fill="none" xmlns="http://www.w3.org/2000/svg">
<circle cx="11.3889" cy="11.3889" r="11.3889" transform="matrix(-1 0 0 1 22.7778 0)" fill="#7EC94F"/>
<path d="M16.7971 11.1118C16.0368 11.1118 15.4205 10.5515 15.4205 9.86029C15.4205 9.16909 16.0368 8.60876 16.7971 8.60876C17.5575 8.60876 18.1738 9.16909 18.1738 9.86029C18.1738 10.5515 17.5575 11.1118 16.7971 11.1118Z" fill="#171E54"/>
<path d="M5.98025 11.1118C5.21993 11.1118 4.60357 10.5515 4.60357 9.86029C4.60357 9.16909 5.21993 8.60876 5.98025 8.60876C6.74057 8.60876 7.35693 9.16909 7.35693 9.86029C7.35693 10.5515 6.74057 11.1118 5.98025 11.1118Z" fill="#171E54"/>
<path d="M15.5188 14.3657H7.25872C7.25872 14.3657 7.68574 17.2012 11.3087 17.357C12.282 17.4316 13.2504 17.1673 14.0276 16.6151C14.8049 16.0629 15.336 15.2617 15.5188 14.3657Z" fill="#171E54" stroke="#171E54" stroke-miterlimit="10"/>
<path d="M4.27 8.33461C4.47947 8.05639 4.72684 7.80478 5.00587 7.58611C5.3153 7.35607 5.66013 7.17087 6.02872 7.03675C6.07264 7.01816 6.1203 7.00854 6.16853 7.00854C6.21676 7.00854 6.26443 7.01816 6.30835 7.03675C6.34953 7.05753 6.38578 7.08589 6.41487 7.12012C6.44396 7.15435 6.46531 7.19374 6.47761 7.23589C6.49769 7.27805 6.50806 7.32367 6.50806 7.3698C6.50806 7.41593 6.49769 7.46155 6.47761 7.50371C6.42735 7.57559 6.35192 7.62899 6.2642 7.65478H6.20533L6.1023 7.70285L5.88891 7.81272L5.68287 7.92946L5.5872 7.99126L5.54305 8.02559C5.49154 8.07366 5.42531 8.11487 5.36644 8.16293L5.18983 8.31401C5.13202 8.36797 5.07795 8.42531 5.02794 8.48568C4.99711 8.51221 4.96992 8.54219 4.947 8.57495C4.8948 8.6495 4.81693 8.70521 4.72623 8.73289C4.68094 8.75123 4.6321 8.76068 4.58273 8.76068C4.53337 8.76068 4.48453 8.75123 4.43924 8.73289C4.36776 8.69336 4.31236 8.6328 4.28173 8.56072C4.2511 8.48864 4.24698 8.40911 4.27 8.33461Z" fill="#171E54"/>
<path d="M18.0056 8.33461C17.8195 8.05639 17.5997 7.80478 17.3517 7.58611C17.0767 7.35607 16.7703 7.17087 16.4427 7.03675C16.4037 7.01816 16.3613 7.00854 16.3185 7.00854C16.2756 7.00854 16.2333 7.01816 16.1942 7.03675C16.1217 7.08048 16.0679 7.15175 16.0438 7.23589C16.0114 7.32192 16.0114 7.41768 16.0438 7.50371C16.09 7.57413 16.1565 7.6271 16.2335 7.65478H16.2858L16.3773 7.70285C16.4426 7.73535 16.506 7.77204 16.567 7.81272C16.6303 7.84757 16.6914 7.88655 16.7501 7.92946L16.8351 7.99126L16.8809 8.02559C16.9267 8.07366 16.992 8.11487 17.0378 8.16293L17.1948 8.31401C17.2461 8.36797 17.2942 8.42531 17.3386 8.48568L17.4171 8.57495C17.4635 8.6495 17.5327 8.70521 17.6133 8.73289C17.6535 8.75123 17.6969 8.76068 17.7408 8.76068C17.7847 8.76068 17.8281 8.75123 17.8683 8.73289C17.9303 8.69219 17.9775 8.63084 18.0024 8.55864C18.0273 8.48644 18.0285 8.40756 18.0056 8.33461Z" fill="#171E54"/>
</svg>
