<svg width="41" height="40" viewBox="0 0 41 40" fill="none" xmlns="http://www.w3.org/2000/svg">
<path d="M29.2857 21.4634L21.1833 13.561C20.1746 12.5854 19.3204 11.5041 18.6208 10.3171C17.9212 9.13008 17.5714 7.8374 17.5714 6.43902C17.5714 4.65041 18.1978 3.13008 19.4506 1.87805C20.7034 0.626016 22.2246 0 24.0143 0C25.0556 0 26.0317 0.219512 26.9429 0.658537C27.854 1.09756 28.6349 1.69106 29.2857 2.43902C29.9365 1.69106 30.7175 1.09756 31.6286 0.658537C32.5397 0.219512 33.5159 0 34.5571 0C36.3468 0 37.8681 0.626016 39.1208 1.87805C40.3736 3.13008 41 4.65041 41 6.43902C41 7.8374 40.6583 9.13008 39.975 10.3171C39.2917 11.5041 38.4456 12.5854 37.4369 13.561L29.2857 21.4634ZM29.2857 16L34.606 10.7805C35.2242 10.1626 35.7937 9.50406 36.3143 8.80488C36.8349 8.10569 37.0952 7.31707 37.0952 6.43902C37.0952 5.72358 36.8512 5.12195 36.3631 4.63415C35.875 4.14634 35.273 3.90244 34.5571 3.90244C34.1016 3.90244 33.6704 3.99187 33.2637 4.17073C32.8569 4.34959 32.5071 4.61789 32.2143 4.97561L29.2857 8.4878L26.3571 4.97561C26.0643 4.61789 25.7145 4.34959 25.3077 4.17073C24.901 3.99187 24.4698 3.90244 24.0143 3.90244C23.2984 3.90244 22.6964 4.14634 22.2083 4.63415C21.7202 5.12195 21.4762 5.72358 21.4762 6.43902C21.4762 7.31707 21.7365 8.10569 22.2571 8.80488C22.7778 9.50406 23.3472 10.1626 23.9655 10.7805L29.2857 16ZM11.7143 32.1951L25.2833 35.9024L36.9 32.2927C36.7373 32 36.5014 31.748 36.1923 31.5366C35.8831 31.3252 35.5333 31.2195 35.1429 31.2195H25.2833C24.4048 31.2195 23.7052 31.187 23.1845 31.122C22.6639 31.0569 22.127 30.9268 21.5738 30.7317L17.0345 29.2195L18.1083 25.4146L22.0619 26.7317C22.6151 26.8943 23.2659 27.0244 24.0143 27.122C24.7627 27.2195 25.869 27.2846 27.3333 27.3171C27.3333 26.9593 27.2276 26.6179 27.0161 26.2927C26.8046 25.9675 26.5524 25.7561 26.2595 25.6585L14.8381 21.4634H11.7143V32.1951ZM0 39.0244V17.561H14.8381C15.0659 17.561 15.2937 17.5854 15.5214 17.6341C15.7492 17.6829 15.9607 17.7398 16.156 17.8049L27.6262 22.0488C28.7 22.439 29.5704 23.122 30.2375 24.0976C30.9046 25.0732 31.2381 26.1463 31.2381 27.3171H35.1429C36.7698 27.3171 38.1528 27.8537 39.2917 28.9268C40.4306 30 41 31.4146 41 33.1707V35.1219L25.381 40L11.7143 36.1951V39.0244H0ZM3.90476 35.1219H7.80952V21.4634H3.90476V35.1219Z" fill="#DFD9CB"/>
</svg>
