<svg width="37" height="40" viewBox="0 0 37 40" fill="none" xmlns="http://www.w3.org/2000/svg">
<path d="M10.7726 0.414055C7.84977 1.82812 5.39137 4.14062 3.41344 7.33593C2.50055 8.80468 1.13922 11.6719 0.882968 12.6719C0.554648 13.9219 1.94801 15 3.1732 14.4609C3.64566 14.25 3.89391 13.9062 4.33434 12.8047C5.55953 9.80468 7.04098 7.48437 8.88277 5.70312C9.9318 4.68749 10.9568 3.94531 12.1339 3.35156C13.0548 2.88281 13.247 2.73437 13.4712 2.31249C13.5994 2.0703 13.6234 1.89843 13.5994 1.51562C13.5433 0.656242 12.9587 0.0859299 12.0619 0.0156174C11.6935 -0.00782013 11.5574 0.0312424 10.7726 0.414055Z" fill="#DFD9CB"/>
<path d="M24.4658 0.101505C24.0174 0.27338 23.8573 0.39838 23.617 0.765568C23.2166 1.39057 23.3287 2.30463 23.8813 2.78119C23.9774 2.87494 24.4258 3.13276 24.8662 3.35151C28.1655 5.02338 30.792 8.21088 32.6658 12.8046C33.1063 13.9062 33.3545 14.2499 33.827 14.4609C34.7639 14.8749 35.877 14.3515 36.1172 13.3749C36.2373 12.8828 36.1492 12.5703 35.5086 11.0859C33.2424 5.83588 30.1914 2.32026 26.2356 0.421818C25.3147 -0.0234947 24.9623 -0.0859947 24.4658 0.101505Z" fill="#DFD9CB"/>
<path d="M16.6183 5.18748C9.89971 6.26561 5.85576 12.0781 4.41436 22.75C4.1501 24.664 3.85381 28.6875 3.8458 30.289C3.8458 30.4687 3.82979 30.4687 2.85283 30.4687C1.73975 30.4687 1.52354 30.5234 1.13916 30.8828C0.754785 31.2422 0.618652 31.539 0.618652 32.0312C0.618652 32.7031 0.906934 33.164 1.52354 33.4844C1.78779 33.625 2.1001 33.6328 6.16006 33.6719L10.5163 33.7109L10.6524 34.1797C11.4372 36.9297 13.7274 39.0703 16.6343 39.7812C17.6913 40.039 19.437 40.0234 20.5101 39.75C23.3528 39.0078 25.579 36.8828 26.3478 34.1797L26.4839 33.7109L30.8401 33.6719C35.1804 33.6328 35.1964 33.6328 35.5327 33.4531C36.4937 32.9609 36.6778 31.6562 35.9011 30.9219C35.4767 30.5156 35.2845 30.4687 34.1474 30.4687C33.2585 30.4687 33.1544 30.4531 33.1544 30.3281C33.1544 30.2578 33.1144 29.4219 33.0743 28.4765C32.746 21.3672 31.6329 16.2109 29.5829 12.25C27.5649 8.37498 24.7542 6.09373 21.0226 5.29686C20.0856 5.09373 17.5632 5.03123 16.6183 5.18748ZM19.8614 8.39842C21.6552 8.66405 23.1206 9.40623 24.4659 10.7344C27.4528 13.6875 29.1825 19.1797 29.703 27.3047C29.7511 27.9922 29.7911 28.9765 29.7991 29.4922L29.8071 30.4297H18.5001H7.19307L7.20107 29.4531C7.2251 27.5 7.45732 24.6719 7.77764 22.539C8.59443 17 10.188 13.0547 12.5263 10.7422C13.9757 9.31248 15.345 8.65623 17.5392 8.32811C18.0276 8.2578 19.1647 8.28905 19.8614 8.39842ZM22.7683 34.2344C22.1837 35.3203 21.2548 36.0937 20.0216 36.5156C19.429 36.7187 19.2288 36.75 18.5001 36.7422C17.8034 36.7422 17.5552 36.7109 17.0347 36.539C15.7935 36.1172 14.7524 35.2656 14.2159 34.2109L13.9356 33.6719H18.5001H23.0726L22.7683 34.2344Z" fill="#DFD9CB"/>
</svg>
