<svg width="31" height="31" viewBox="0 0 31 31" fill="none" xmlns="http://www.w3.org/2000/svg">
<path d="M15.5 15.5C13.3687 15.5 11.5443 14.7411 10.0266 13.2234C8.50885 11.7057 7.75 9.88125 7.75 7.75C7.75 5.61875 8.50885 3.79427 10.0266 2.27656C11.5443 0.758854 13.3687 0 15.5 0C17.6313 0 19.4557 0.758854 20.9734 2.27656C22.4911 3.79427 23.25 5.61875 23.25 7.75C23.25 9.88125 22.4911 11.7057 20.9734 13.2234C19.4557 14.7411 17.6313 15.5 15.5 15.5ZM0 31V25.575C0 24.4771 0.282552 23.468 0.847656 22.5477C1.41276 21.6273 2.16354 20.925 3.1 20.4406C5.10208 19.4396 7.13646 18.6888 9.20312 18.1883C11.2698 17.6878 13.3687 17.4375 15.5 17.4375C17.6313 17.4375 19.7302 17.6878 21.7969 18.1883C23.8635 18.6888 25.8979 19.4396 27.9 20.4406C28.8365 20.925 29.5872 21.6273 30.1523 22.5477C30.7174 23.468 31 24.4771 31 25.575V31H0ZM3.875 27.125H27.125V25.575C27.125 25.2198 27.0362 24.8969 26.8586 24.6062C26.681 24.3156 26.4469 24.0896 26.1562 23.9281C24.4125 23.0562 22.6526 22.4023 20.8766 21.9664C19.1005 21.5305 17.3083 21.3125 15.5 21.3125C13.6917 21.3125 11.8995 21.5305 10.1234 21.9664C8.3474 22.4023 6.5875 23.0562 4.84375 23.9281C4.55312 24.0896 4.31901 24.3156 4.14141 24.6062C3.9638 24.8969 3.875 25.2198 3.875 25.575V27.125ZM15.5 11.625C16.5656 11.625 17.4779 11.2456 18.2367 10.4867C18.9956 9.72786 19.375 8.81563 19.375 7.75C19.375 6.68437 18.9956 5.77214 18.2367 5.01328C17.4779 4.25443 16.5656 3.875 15.5 3.875C14.4344 3.875 13.5221 4.25443 12.7633 5.01328C12.0044 5.77214 11.625 6.68437 11.625 7.75C11.625 8.81563 12.0044 9.72786 12.7633 10.4867C13.5221 11.2456 14.4344 11.625 15.5 11.625Z" fill="#DFD9CB"/>
</svg>
